<?xml version="1.0" standalone="no"?>
<!DOCTYPE svg PUBLIC "-//W3C//DTD SVG 20010904//EN"
 "http://www.w3.org/TR/2001/REC-SVG-20010904/DTD/svg10.dtd">
<svg version="1.0" xmlns="http://www.w3.org/2000/svg"
 width="3633.000000pt" height="3633.000000pt" viewBox="0 0 3633.000000 3633.000000"
 preserveAspectRatio="xMidYMid meet">

<g transform="translate(0.000000,3633.000000) scale(0.100000,-0.100000)"
fill="#000000" stroke="none">
<path d="M17520 36320 c-2951 -116 -5710 -888 -8240 -2308 -3464 -1943 -6214
-4992 -7792 -8637 -1251 -2888 -1723 -6051 -1377 -9225 519 -4761 2931 -9145
6693 -12162 2828 -2268 6240 -3631 9836 -3927 622 -52 1014 -65 1720 -58 560
6 695 11 1140 42 2873 204 5690 1110 8155 2623 994 610 1934 1321 2820 2131
232 213 843 824 1056 1056 1421 1553 2539 3280 3351 5180 774 1809 1251 3765
1397 5730 37 485 42 633 48 1210 7 701 -7 1096 -58 1715 -387 4689 -2587 9039
-6149 12154 -2297 2009 -5063 3409 -8025 4060 -1008 221 -1958 348 -3055 406
-260 14 -1250 20 -1520 10z m15267 -11251 c762 -1615 1257 -3362 1447 -5114
78 -714 101 -1214 93 -1980 -6 -520 -11 -652 -42 -1065 -235 -3083 -1360
-6045 -3233 -8510 -652 -857 -1408 -1669 -2227 -2391 -1903 -1676 -4221 -2897
-6682 -3518 -1026 -259 -1941 -398 -3093 -472 -268 -17 -1190 -23 -1510 -10
-996 41 -1923 160 -2865 367 -3756 828 -7100 2982 -9431 6074 -278 369 -483
666 -468 679 5 5 1667 966 3694 2136 2027 1170 3699 2135 3715 2146 l31 18 44
-57 c169 -217 518 -587 767 -814 1417 -1294 3228 -1998 5138 -1998 1873 0
3651 675 5055 1919 132 117 469 452 594 591 1269 1410 1956 3201 1956 5095 0
935 -171 1859 -506 2739 -12 30 -15 51 -9 53 6 2 1680 968 3720 2147 2041
1179 3714 2143 3720 2142 5 -2 47 -81 92 -177z m-14122 -1469 c1026 -103 1956
-460 2760 -1059 400 -299 810 -707 1111 -1109 557 -740 917 -1622 1039 -2539
36 -274 45 -423 45 -737 0 -622 -85 -1148 -279 -1726 -287 -855 -764 -1601
-1421 -2225 -403 -383 -823 -678 -1318 -925 -637 -318 -1320 -505 -2043 -561
-181 -13 -767 -7 -924 10 -1143 127 -2111 535 -2980 1257 -166 138 -509 480
-655 654 -667 792 -1090 1732 -1234 2741 -43 300 -51 417 -51 779 0 350 8 481
46 755 282 2048 1716 3772 3679 4425 412 137 835 225 1245 259 72 6 150 13
175 15 89 7 697 -3 805 -14z"/>
</g>
</svg>
